<svg width="24" height="24" viewBox="0 0 24 24" fill="none" xmlns="http://www.w3.org/2000/svg">
<path d="M20.1737 19.719C20.6621 19.8114 21.1504 19.9038 21.6171 20.0162C21.8861 20.081 22.0511 20.3503 21.9861 20.6176C21.9311 20.8459 21.7261 20.9995 21.5001 20.9995C21.4621 20.9995 21.4221 20.9955 21.3831 20.9855C15.6711 19.6113 8.3471 19.6023 2.6161 20.9656C2.3451 21.0294 2.0771 20.8629 2.0141 20.5956C1.9491 20.3283 2.1151 20.0591 2.3841 19.9952C2.86765 19.8798 3.37351 19.7857 3.87942 19.6916C3.91965 19.6841 3.95988 19.6766 4.0001 19.6691V11.3917C3.4081 11.2969 2.8571 11.0117 2.4791 10.5719C2.1021 10.1341 1.9381 9.59855 2.0211 9.06301C2.15617 8.1774 3.01068 5.40014 3.1166 5.0559C3.12125 5.04079 3.12446 5.03037 3.1261 5.025C3.6391 3.80432 4.7771 3.10223 6.2831 3.01647C6.28748 3.01647 6.29162 3.01528 6.29588 3.01407C6.30036 3.01279 6.30497 3.01148 6.3101 3.01148C6.3101 3.01148 6.3141 3.01215 6.31633 3.01285C6.31882 3.01364 6.32146 3.01447 6.3241 3.01447C6.35875 3.01292 6.39279 3.01031 6.42682 3.0077C6.48019 3.0036 6.53353 2.99951 6.5891 2.99951H17.4111C17.4667 2.99951 17.52 3.0036 17.5734 3.0077C17.6074 3.01031 17.6414 3.01292 17.6761 3.01447C17.6787 3.01447 17.6814 3.01364 17.6839 3.01285C17.6861 3.01215 17.6901 3.01148 17.6901 3.01148C17.6951 3.01148 17.6993 3.01273 17.7036 3.01397C17.7078 3.01522 17.7121 3.01647 17.7171 3.01647C19.2231 3.10123 20.3601 3.80133 20.8571 4.97912C20.9131 5.15265 21.8381 8.13852 21.9791 9.06301C22.0621 9.59855 21.8981 10.1341 21.5211 10.5719C21.1431 11.0117 20.5921 11.2969 20.0001 11.3917V19.6861C20.0579 19.6971 20.1158 19.708 20.1737 19.719ZM14.3905 9.03909C14.3881 9.04818 14.3856 9.05736 14.3841 9.06699C14.3856 9.07588 14.3879 9.08449 14.3902 9.09313C14.3941 9.10777 14.3981 9.1225 14.3981 9.1388C14.3981 9.141 14.3976 9.14266 14.3973 9.14497L14.3971 9.14778C14.4031 9.86083 15.0251 10.4393 15.7931 10.4393C16.5631 10.4393 17.1901 9.85585 17.1901 9.1388V3.9968H14.3981V8.99519C14.3981 9.01049 14.3943 9.02466 14.3905 9.03909ZM3.0091 9.2136C2.9611 9.52475 3.1061 9.77008 3.2361 9.92167C3.5121 10.2408 3.9621 10.4393 4.4121 10.4393C5.1831 10.4393 5.8101 9.85585 5.8101 9.1388V4.07758C5.1731 4.20523 4.4161 4.53234 4.0641 5.36607C4.0641 5.36607 4.04843 5.4191 4.01996 5.51305C3.83436 6.1255 3.12181 8.47692 3.0091 9.2136ZM6.3101 10.527C5.9861 10.9309 5.5301 11.2291 5.0001 11.3588V19.4896C5.9771 19.335 6.9801 19.2214 8.0001 19.1346V14.6388C8.0001 14.3626 8.2241 14.1402 8.5001 14.1402H15.5001C15.7761 14.1402 16.0001 14.3626 16.0001 14.6388V19.1416C17.0201 19.2313 18.0241 19.346 19.0001 19.5036V11.3588C18.4701 11.2291 18.0141 10.9309 17.6901 10.527C17.2521 11.0765 16.5681 11.4365 15.7931 11.4365C15.0191 11.4365 14.3361 11.0765 13.8971 10.528C13.4591 11.0765 12.7761 11.4365 12.0011 11.4365C11.2261 11.4365 10.5421 11.0765 10.1041 10.527C9.6651 11.0765 8.9821 11.4365 8.2071 11.4365C7.4321 11.4365 6.7481 11.0765 6.3101 10.527ZM9.0001 15.1375V19.0548C10.9891 18.9301 13.0131 18.9311 15.0001 19.0598V15.1375H9.0001ZM10.6041 3.9968V9.1388C10.6041 9.85585 11.2301 10.4393 12.0011 10.4393C12.7691 10.4393 13.3921 9.86083 13.3971 9.14778L13.397 9.14522L13.3965 9.14262L13.3961 9.1388C13.3961 9.12197 13.4005 9.10692 13.4048 9.09197C13.4077 9.08212 13.4105 9.0723 13.4121 9.06201C13.4108 9.05233 13.4081 9.04319 13.4055 9.03406C13.4018 9.02153 13.3981 9.00903 13.3981 8.99519V3.9968H10.6041ZM9.6041 3.9968H6.8101V9.1388C6.8101 9.85585 7.4371 10.4393 8.2071 10.4393C8.9781 10.4393 9.6041 9.85585 9.6041 9.1388V3.9968ZM19.9191 5.32019C19.5791 4.51738 18.8261 4.20024 18.1901 4.07558V9.1388C18.1901 9.85585 18.8171 10.4393 19.5881 10.4393C20.0381 10.4393 20.4881 10.2408 20.7641 9.92167C20.8941 9.77008 21.0391 9.52475 20.9911 9.2136C20.8651 8.39438 19.998 5.57661 19.9241 5.33633L19.9191 5.32019Z" fill="#222222"/>
</svg>
