<svg width="24" height="24" viewBox="0 0 24 24" fill="none" xmlns="http://www.w3.org/2000/svg">
<path d="M4.00018 8L4 20.4962C3.99999 20.81 4.28577 21.0461 4.59512 20.9921C9.28723 20.173 14.7225 20.1641 19.4038 20.9921C19.7135 21.0469 20 20.8107 20 20.4964L20.0002 8H4.00018Z" fill="#FFEBAE"/>
<path fill-rule="evenodd" clip-rule="evenodd" d="M9.11462 20.454C12.5751 20.2403 16.1694 20.42 19.4038 20.9921C19.7135 21.0469 20 20.8107 20 20.4964L20.0002 8H16.3094L9.11462 20.454Z" fill="#FFDC70"/>
<path fill-rule="evenodd" clip-rule="evenodd" d="M15 20.4747V14.4959C15 14.222 14.7761 14 14.5 14H9.5C9.22386 14 9 14.222 9 14.4959V20.4689C10.9852 20.3411 13.0164 20.3431 15 20.4747Z" fill="#856300"/>
<path d="M6 4C4.5253 4 3.23983 4.99996 2.88216 6.42536L2.0751 9.64171C2.01539 9.87967 1.97405 10.1262 2.01899 10.3674C2.19213 11.2965 3.0099 12 3.9926 12C5.10126 12 6 11.1046 6 10V4Z" fill="#EC0000"/>
<path d="M10 4H14V10C14 11.1046 13.1046 12 12 12C10.8954 12 10 11.1046 10 10V4Z" fill="#EC0000"/>
<path d="M21.1178 6.42536C20.7602 4.99996 19.4747 4 18 4V10C18 11.1046 18.8987 12 20.0074 12C20.9901 12 21.8079 11.2965 21.981 10.3674C22.026 10.1262 21.9846 9.87967 21.9249 9.64171L21.1178 6.42536Z" fill="#EC0000"/>
<path d="M6 4H10V10C10 11.1046 9.10457 12 8 12C6.89543 12 6 11.1046 6 10V4Z" fill="#CC0000"/>
<path d="M14 4H18V10C18 11.1046 17.1046 12 16 12C14.8954 12 14 11.1046 14 10V4Z" fill="#CC0000"/>
</svg>
