<svg width="24" height="24" viewBox="0 0 24 24" fill="none" xmlns="http://www.w3.org/2000/svg">
<path fill-rule="evenodd" clip-rule="evenodd" d="M14.6524 2.41012C14.6101 2.17688 14.4059 2 14.1605 2H9.83948L9.7496 2.00806C9.51635 2.05039 9.33948 2.25454 9.33948 2.5V4.362L9.33006 4.42852C9.30515 4.51525 9.23173 4.59206 9.12012 4.63414C8.32918 4.93047 7.59137 5.34923 6.93146 5.87351C6.81505 5.96593 6.67048 5.98093 6.56065 5.9188L4.90593 4.9864L4.82488 4.94971C4.60412 4.8726 4.35312 4.95936 4.23005 5.16758L2.06905 8.82358L2.02982 8.90621C1.94703 9.13168 2.03694 9.3911 2.25375 9.51345L3.90175 10.4434L3.96014 10.4871C4.02909 10.5543 4.06126 10.6553 4.04308 10.766C3.97393 11.1711 3.93848 11.5842 3.93848 12C3.93848 12.4158 3.97393 12.8289 4.0436 13.2371C4.06578 13.3719 4.00956 13.4958 3.90207 13.5564L2.25375 14.4866L2.17848 14.5385C1.99411 14.6925 1.94237 14.9621 2.06905 15.1764L4.23005 18.8324L4.28189 18.9047C4.43447 19.0819 4.69521 19.1323 4.90593 19.0136L6.55993 18.0816L6.62994 18.0534C6.72746 18.0281 6.839 18.0524 6.93246 18.1263C7.59052 18.6502 8.32839 19.0692 9.12105 19.3662C9.2597 19.4185 9.33948 19.5254 9.33948 19.639V21.5L9.34753 21.5899C9.38987 21.8231 9.59402 22 9.83948 22H14.1605L14.2504 21.9919C14.4836 21.9496 14.6605 21.7455 14.6605 21.5V19.639L14.6699 19.5722C14.6949 19.4851 14.7685 19.4078 14.8798 19.3659C15.6708 19.0695 16.4086 18.6508 17.0685 18.1265C17.1849 18.0341 17.3295 18.0191 17.4393 18.0812L19.094 19.0136L19.1751 19.0503C19.3959 19.1274 19.6469 19.0406 19.77 18.8323L21.93 15.1763L21.9692 15.0937C22.0519 14.8683 21.962 14.609 21.7453 14.4866L20.0983 13.5566L20.04 13.513C19.9711 13.4457 19.9387 13.3443 19.9568 13.2342C20.026 12.8289 20.0615 12.4158 20.0615 12C20.0615 11.5842 20.026 11.1711 19.9564 10.7629C19.9341 10.6276 19.9901 10.5044 20.0979 10.4436L21.7453 9.51338L21.8206 9.46141C22.0048 9.30747 22.0565 9.03793 21.93 8.82367L19.77 5.16767L19.7181 5.09534C19.5655 4.9181 19.3048 4.86764 19.094 4.9864L17.44 5.9184L17.3701 5.94661C17.2728 5.97183 17.1616 5.94743 17.0684 5.87342C16.4086 5.34923 15.6708 4.93047 14.8789 4.63378C14.7403 4.58155 14.6605 4.47467 14.6605 4.362V2.5L14.6524 2.41012ZM14.7233 14.7009C16.2351 13.2224 16.2351 10.8226 14.7234 9.34548C13.2182 7.87466 10.7829 7.87466 9.27654 9.34548C7.76481 10.8226 7.76481 13.2224 9.2764 14.7006C10.7831 16.1705 13.218 16.1705 14.7233 14.7009Z" fill="#EC0000"/>
<path fill-rule="evenodd" clip-rule="evenodd" d="M8.0365 18.8651C8.38407 19.0582 8.74653 19.2258 9.12122 19.3662C9.25987 19.4185 9.33965 19.5254 9.33965 19.639V21.5L9.34771 21.5899C9.39004 21.8231 9.59419 22 9.83965 22H14.1606L14.2505 21.992C14.4838 21.9496 14.6606 21.7455 14.6606 21.5V19.639L14.6701 19.5722C14.6951 19.4851 14.7687 19.4078 14.88 19.3659C15.6709 19.0695 16.4088 18.6508 17.0687 18.1265C17.1851 18.0341 17.3296 18.0191 17.4395 18.0812L19.0942 19.0136L19.1753 19.0503C19.396 19.1274 19.6471 19.0406 19.7701 18.8323L21.9301 15.1763L21.9693 15.0937C22.0521 14.8683 21.9622 14.609 21.7455 14.4866L20.0985 13.5566L20.0402 13.513C19.9712 13.4457 19.9389 13.3444 19.957 13.2343C20.0262 12.8289 20.0616 12.4158 20.0616 12C20.0616 11.5842 20.0262 11.1711 19.9565 10.7629C19.9343 10.6276 19.9903 10.5044 20.0981 10.4436L21.7455 9.5134L21.8207 9.46143C22.005 9.30749 22.0567 9.03795 21.9301 8.82368L19.7701 5.16768L19.7183 5.09536C19.5657 4.91811 19.3049 4.86765 19.0942 4.98641L17.4402 5.91841L17.3703 5.94663C17.2729 5.97185 17.1618 5.94745 17.0686 5.87344C16.7208 5.59713 16.3513 5.35011 15.9637 5.13482L13.8902 8.7261C14.1886 8.8906 14.4693 9.09707 14.7236 9.34549C16.2353 10.8226 16.2353 13.2225 14.7234 14.7009C13.4666 15.928 11.5616 16.1305 10.09 15.3083L8.0365 18.8651Z" fill="#CC0000"/>
</svg>