<svg width="24" height="24" viewBox="0 0 24 24" fill="none" xmlns="http://www.w3.org/2000/svg">
<path d="M14.653 2.41012C14.6107 2.17688 14.4065 2 14.1611 2H9.84009L9.75021 2.00806C9.51696 2.05039 9.34009 2.25454 9.34009 2.5V4.362L9.33067 4.42852C9.30576 4.51525 9.23234 4.59206 9.12073 4.63414C8.32979 4.93047 7.59199 5.34923 6.93207 5.87351C6.81566 5.96593 6.6711 5.98093 6.56126 5.9188L4.90654 4.9864L4.82549 4.94971C4.60473 4.8726 4.35373 4.95936 4.23066 5.16758L2.06966 8.82358L2.03043 8.90621C1.94764 9.13168 2.03755 9.3911 2.25436 9.51345L3.90236 10.4434L3.96075 10.4871C4.02971 10.5543 4.06187 10.6553 4.04369 10.766C3.97454 11.1711 3.93909 11.5842 3.93909 12C3.93909 12.4158 3.97454 12.8289 4.04421 13.2371C4.06639 13.3719 4.01017 13.4958 3.90268 13.5564L2.25436 14.4866L2.17909 14.5385C1.99472 14.6925 1.94298 14.9621 2.06966 15.1764L4.23066 18.8324L4.2825 18.9047C4.43508 19.0819 4.69582 19.1323 4.90654 19.0136L6.56054 18.0816L6.63055 18.0534C6.72807 18.0281 6.83961 18.0524 6.93308 18.1263C7.59114 18.6502 8.329 19.0692 9.12166 19.3662C9.26031 19.4185 9.34009 19.5254 9.34009 19.639V21.5L9.34814 21.5899C9.39048 21.8231 9.59463 22 9.84009 22H14.1611L14.251 21.9919C14.4842 21.9496 14.6611 21.7455 14.6611 21.5V19.639L14.6705 19.5722C14.6955 19.4851 14.7691 19.4078 14.8804 19.3659C15.6714 19.0695 16.4092 18.6508 17.0691 18.1265C17.1855 18.0341 17.3301 18.0191 17.4399 18.0812L19.0946 19.0136L19.1757 19.0503C19.3965 19.1274 19.6475 19.0406 19.7706 18.8323L21.9306 15.1763L21.9698 15.0937C22.0525 14.8683 21.9626 14.609 21.7459 14.4866L20.0989 13.5566L20.0406 13.513C19.9717 13.4457 19.9393 13.3443 19.9574 13.2342C20.0266 12.8289 20.0621 12.4158 20.0621 12C20.0621 11.5842 20.0266 11.1711 19.957 10.7629C19.9348 10.6276 19.9907 10.5044 20.0985 10.4436L21.7459 9.51338L21.8212 9.46141C22.0054 9.30747 22.0572 9.03793 21.9306 8.82367L19.7706 5.16767L19.7187 5.09534C19.5662 4.9181 19.3054 4.86764 19.0946 4.9864L17.4406 5.9184L17.3707 5.94661C17.2734 5.97183 17.1622 5.94743 17.069 5.87342C16.4092 5.34923 15.6714 4.93047 14.8795 4.63378C14.7409 4.58155 14.6611 4.47467 14.6611 4.362V2.5L14.653 2.41012ZM10.3401 3H13.6611V4.362L13.6683 4.49636C13.7206 4.98245 14.0546 5.39151 14.5277 5.56986C15.2223 5.83008 15.8686 6.19695 16.4471 6.65649C16.8752 6.9964 17.4589 7.05695 17.9323 6.7892L19.1588 6.09808L20.8102 8.89333L19.6072 9.57262L19.492 9.64579C19.0878 9.93352 18.8887 10.4287 18.9707 10.928C19.0315 11.2841 19.0621 11.641 19.0621 12C19.0621 12.359 19.0315 12.7159 18.9712 13.0689C18.8812 13.6157 19.1265 14.1565 19.6077 14.4276L20.8102 15.1067L19.1588 17.9019L17.9315 17.2104L17.8001 17.1456C17.3541 16.9564 16.8363 17.0345 16.4472 17.3434C15.8686 17.8031 15.2223 18.1699 14.5287 18.4298C14.0116 18.6247 13.6611 19.0948 13.6611 19.639V21H10.3401V19.639L10.3329 19.5045C10.2806 19.0178 9.94681 18.6086 9.47345 18.4301C8.77838 18.1697 8.13223 17.8027 7.5545 17.3428C7.12498 17.0034 6.54174 16.9433 6.06891 17.2108L4.84231 17.902L3.1901 15.1067L4.39382 14.4274L4.50908 14.3543C4.91327 14.0664 5.11256 13.5704 5.03044 13.0718C4.96971 12.7159 4.93909 12.359 4.93909 12C4.93909 11.641 4.96971 11.2841 5.02996 10.9311C5.11991 10.3833 4.87483 9.84352 4.39349 9.57237L3.1901 8.89326L4.84231 6.09803L6.06963 6.7896L6.20108 6.85442C6.6471 7.04363 7.16492 6.96551 7.554 6.65658C8.13255 6.19695 8.77892 5.83008 9.47251 5.57022C9.98962 5.3753 10.3401 4.90617 10.3401 4.362V3ZM14.724 9.34548C16.2358 10.8226 16.2358 13.2224 14.7239 14.7009C13.2187 16.1705 10.7837 16.1705 9.27701 14.7006C7.76542 13.2224 7.76542 10.8226 9.27715 9.34548C10.7836 7.87466 13.2188 7.87466 14.724 9.34548ZM9.97575 13.9852C11.0935 15.0757 12.9085 15.0757 14.025 13.9856C15.1354 12.8998 15.1354 11.1456 14.0252 10.0607C12.9084 8.96956 11.0937 8.96954 9.97596 10.0608C8.86575 11.1457 8.86578 12.8998 9.97575 13.9852Z" fill="#222222"/>
</svg>