<svg width="24" height="24" viewBox="0 0 24 24" fill="none" xmlns="http://www.w3.org/2000/svg">
<path d="M22 12C22 17.5228 17.5228 22 12 22C6.47715 22 2 17.5228 2 12C2 6.47715 6.47715 2 12 2C17.5228 2 22 6.47715 22 12Z" fill="#CEDEE7"/>
<path d="M6.99915 20.6613C8.4702 21.5124 10.1782 21.9996 12 21.9996C17.5228 21.9996 22 17.5224 22 11.9996C22 8.29852 19.9894 5.06705 17.0008 3.33789L6.99915 20.6613Z" fill="#9BC3D3"/>
<path d="M12.4999 6.5C12.7454 6.5 12.9495 6.67688 12.9918 6.91013L12.9999 7V12.501C12.9999 12.7465 12.823 12.9506 12.5898 12.993L12.4999 13.001H6.99988C6.72374 13.001 6.49988 12.7772 6.49988 12.501C6.49988 12.2556 6.67675 12.0514 6.91 12.0091L6.99988 12.001H11.9999V7C11.9999 6.72386 12.2238 6.5 12.4999 6.5Z" fill="#34466B"/>
</svg>
