<svg width="24" height="24" viewBox="0 0 24 24" fill="none" xmlns="http://www.w3.org/2000/svg">
<path d="M7.73839 8.29877L7.98363 6.26431C8.15303 4.97432 6.97949 4 5.75129 4C4.44949 4 3.32214 5.0378 3.52339 6.27582L3.76525 8.29C3.94367 9.28203 4.71998 10 5.75129 10C6.78589 10 7.58398 9.31338 7.73839 8.29877Z" fill="#9BC3D3"/>
<path fill-rule="evenodd" clip-rule="evenodd" d="M14.5166 19.0355C16.2684 19.142 18.0482 19.355 19.9167 19.6656C20.13 19.701 20.3425 19.5967 20.4436 19.4055L20.5946 19.1198C21.2756 17.5634 21.6206 15.9003 21.6206 14.2181V12.7111C21.6206 11.5787 20.7661 10.8091 19.4086 10.8091C19 10.8091 18.5305 11.0631 18.0654 11.0661C17.6032 11.0704 17.2777 10.8091 16.6926 10.8091C15.3394 10.8091 14.5166 11.5742 14.5166 12.7111V19.0355Z" fill="#9E3667"/>
<path fill-rule="evenodd" clip-rule="evenodd" d="M14.5166 18.0339V19.0355C16.2684 19.142 18.0482 19.355 19.9167 19.6656C20.13 19.701 20.3425 19.5967 20.4436 19.4055L20.5946 19.1198C21.2756 17.5634 21.6206 15.9003 21.6206 14.2181V12.7111C21.6206 11.5787 20.7661 10.8091 19.4086 10.8091C19.2097 10.8091 18.9965 10.8692 18.7763 10.9314C18.7138 10.949 18.6507 10.9668 18.5872 10.9834L14.5166 18.0339Z" fill="#732645"/>
<path fill-rule="evenodd" clip-rule="evenodd" d="M3.55728 19.4059C3.66127 19.5884 3.8683 19.6863 4.0756 19.6522C5.94413 19.3448 7.71169 19.1353 9.45068 19.0316V12.7216C9.45068 11.579 8.62855 10.8096 7.27368 10.8096C6.63403 10.8096 6.37829 11.073 5.90235 11.0686C5.44623 11.0641 5.08472 10.8096 4.55868 10.8096C3.20032 10.8096 2.34668 11.5837 2.34668 12.7216V14.0976C2.34668 15.8876 2.73123 17.6531 3.46975 19.2522L3.55728 19.4059Z" fill="#23779A"/>
<path fill-rule="evenodd" clip-rule="evenodd" d="M3.19067 18.5977C3.2772 18.8187 3.37022 19.037 3.46965 19.2523L3.55718 19.4059C3.66117 19.5885 3.8682 19.6863 4.0755 19.6522C5.94403 19.3449 7.71159 19.1354 9.45058 19.0317V12.7216C9.45058 11.6963 8.78844 10.9714 7.67333 10.8335L3.19067 18.5977Z" fill="#34466B"/>
<path fill-rule="evenodd" clip-rule="evenodd" d="M15.5178 19.1074C15.5516 18.9622 15.982 17.0707 16 14.9998C16 12.4998 15.7675 9.86035 13.2797 9.86035C13.0089 9.86035 12.7925 9.9243 12.5845 9.98577C12.3945 10.0419 12.2115 10.096 12.0005 10.0974C11.7749 10.0988 11.5793 10.0435 11.3758 9.98599C11.158 9.92446 10.9311 9.86035 10.6487 9.86035C8.13092 9.86035 8 12.4998 8 14.9998C8.01806 17.0524 8.40914 18.9269 8.44681 19.1029C9.62669 19.006 10.7873 18.9563 11.9508 18.9563C13.1343 18.9563 14.3169 19.0076 15.5178 19.1074Z" fill="#EC0000"/>
<path fill-rule="evenodd" clip-rule="evenodd" d="M8.12085 16.9866C8.24469 18.1379 8.4221 18.9872 8.44686 19.1029C9.62674 19.006 10.7874 18.9563 11.9509 18.9563C13.1344 18.9563 14.317 19.0076 15.5179 19.1074C15.5516 18.9622 15.9821 17.0707 16 14.9998C16 12.4998 15.7676 9.86035 13.2798 9.86035C13.0089 9.86035 12.7925 9.9243 12.5845 9.98577C12.4253 10.0328 12.271 10.0784 12.101 10.0928L8.12085 16.9866Z" fill="#CC0000"/>
<path fill-rule="evenodd" clip-rule="evenodd" d="M20.4836 6.26431L20.2384 8.29877C20.084 9.31338 19.2859 10 18.2513 10C17.22 10 16.4437 9.28203 16.2652 8.29L16.0234 6.27582C15.8221 5.0378 16.9495 4 18.2513 4C19.4795 4 20.653 4.97432 20.4836 6.26431Z" fill="#CF9BB3"/>
<path d="M13.9884 7.29877L14.2336 5.26431C14.403 3.97432 13.2295 3 12.0013 3C10.6995 3 9.57214 4.0378 9.77339 5.27582L10.0152 7.29C10.1937 8.28203 10.97 9 12.0013 9C13.0359 9 13.834 8.31338 13.9884 7.29877Z" fill="#F67F7F"/>
<path d="M11.1839 8.83286C11.1069 8.66436 11.0498 8.48233 11.0152 8.29L10.7734 6.27582C10.5721 5.0378 11.6995 4 13.0013 4C13.3797 4 13.7529 4.09247 14.0832 4.25816C13.7331 3.50013 12.8812 3 12.0013 3C10.6995 3 9.57214 4.0378 9.77339 5.27582L10.0152 7.29C10.1424 7.99713 10.5734 8.565 11.1839 8.83286Z" fill="#FAB2B2"/>
<path d="M4.93395 9.83286C4.85691 9.66436 4.79984 9.48233 4.76525 9.29L4.52339 7.27582C4.32214 6.0378 5.44949 5 6.75129 5C7.12967 5 7.50286 5.09247 7.8332 5.25816C7.48314 4.50013 6.63124 4 5.75129 4C4.44949 4 3.32214 5.0378 3.52339 6.27582L3.76525 8.29C3.89243 8.99713 4.32339 9.565 4.93395 9.83286Z" fill="#CEDEE7"/>
<path fill-rule="evenodd" clip-rule="evenodd" d="M17.2652 9.29C17.2998 9.48233 17.3569 9.66436 17.4339 9.83286C16.8234 9.565 16.3924 8.99713 16.2652 8.29L16.0234 6.27582C15.8221 5.0378 16.9495 4 18.2513 4C19.1312 4 19.9831 4.50013 20.3332 5.25816C20.0029 5.09247 19.6297 5 19.2513 5C17.9495 5 16.8221 6.0378 17.0234 7.27582L17.2652 9.29Z" fill="#E2C3D2"/>
</svg>
