<svg width="24" height="24" viewBox="0 0 24 24" fill="none" xmlns="http://www.w3.org/2000/svg">
<path d="M12.0128 3.00012C13.5442 3.00012 14.8923 4.16142 14.7588 5.58292L14.4579 7.92316C14.2681 9.14637 13.2795 9.97665 12.0128 9.97665C10.804 9.97665 9.85077 9.2205 9.59989 8.07642L9.56888 7.91038L9.29156 5.75457C9.04038 4.24526 10.4268 3.00012 12.0128 3.00012ZM5.99029 5.00267C7.32479 5.00267 8.50246 6.01434 8.39178 7.25937L8.13526 9.25715C7.96712 10.3289 7.09897 11.0581 5.99029 11.0581C4.94004 11.0581 4.10794 10.4036 3.87976 9.41192L3.84738 9.24357L3.61306 7.42239C3.39199 6.09347 4.606 5.00267 5.99029 5.00267ZM15.5415 11.9453C15.0766 11.3848 14.29 11.0726 13.3294 11.2017L13.2299 11.2168L13.0631 11.2519L12.3198 11.4374L12.137 11.4721C12.0856 11.4798 12.0434 11.4837 12.0091 11.484C11.9008 11.4848 11.7137 11.4514 11.4228 11.3807L10.8663 11.2448L10.7392 11.2189L10.6253 11.2016C9.66186 11.0735 8.88958 11.3865 8.43977 11.9496C8.10905 11.8067 7.71169 11.7379 7.23539 11.7379L7.1335 11.7484L6.93548 11.7884L6.36685 11.8932L6.03569 11.9446L5.81161 11.9692L5.76631 11.9707L5.63603 11.9601L5.42659 11.9313L5.17928 11.8907L4.43454 11.7485L4.33239 11.7379L4.15011 11.7418C2.83502 11.7991 2.00039 12.48 2.00039 13.5083V13.6621L2.00705 14.0892C2.0692 16.074 2.5668 17.9444 3.5102 19.7934C3.14691 19.8562 2.77956 19.9227 2.40761 19.9926C2.13623 20.0436 1.95764 20.3048 2.00872 20.5759C2.05979 20.847 2.32119 21.0255 2.59257 20.9744C5.97177 20.339 8.95634 20.001 11.9511 20.001C14.9857 20.001 18.0246 20.3469 21.4064 20.9912C21.6777 21.0429 21.9395 20.8651 21.9912 20.5941C22.043 20.3231 21.865 20.0615 21.5938 20.0098C21.2445 19.9433 20.8987 19.8798 20.5574 19.8207C21.5241 17.8185 21.9997 15.8123 21.9997 13.6686V13.5088L21.9945 13.3706C21.9191 12.3738 21.0216 11.7374 19.6587 11.7374L19.5568 11.7479L19.2383 11.8114L18.6881 11.9105L18.3928 11.9543L18.2147 11.9702L18.1073 11.9639L17.943 11.9444L17.6102 11.893L17.2907 11.8362L16.8395 11.7479L16.7377 11.7374L16.5077 11.743C16.1351 11.7619 15.8154 11.8281 15.5415 11.9453ZM19.3067 12.8154L19.7083 12.7368C20.5968 12.748 20.9997 13.062 20.9997 13.5088V13.6686L20.9933 14.0833C20.9331 16.0097 20.4512 17.8204 19.5241 19.6463C18.0173 19.4056 16.5662 19.2296 15.1385 19.1249C15.2468 18.845 15.3667 18.4738 15.4848 18.0074C15.8076 16.7326 16.0001 15.1542 16.0001 13.2543C16.0001 13.1159 15.9876 12.9814 15.9616 12.8512C16.1442 12.7798 16.3798 12.7406 16.6881 12.7368L17.2537 12.845L17.7649 12.9286C17.9585 12.9559 18.1106 12.9702 18.222 12.9693C18.2485 12.9691 18.2776 12.968 18.3092 12.9661L18.5299 12.9441C18.5719 12.9388 18.6164 12.9326 18.6635 12.9257L18.9772 12.875L19.3067 12.8154ZM7.28498 12.7373C7.6086 12.7413 7.85129 12.7846 8.03319 12.8632C8.01133 12.9893 8.00009 13.1199 8.00009 13.2543C8.00009 15.1542 8.19261 16.7326 8.51536 18.0074C8.6325 18.4701 8.75144 18.8391 8.85992 19.1165C7.45952 19.2188 6.03512 19.3887 4.54852 19.622L4.62091 19.7603C3.53283 17.7758 3.00039 15.7953 3.00039 13.6621V13.5083L3.00574 13.4207C3.05581 13.0209 3.45882 12.7478 4.28269 12.7373L4.84099 12.8453L5.1715 12.9026L5.45218 12.9441L5.67181 12.9664L5.75883 12.9698C5.87058 12.9704 6.02212 12.9559 6.21463 12.9285L6.53428 12.8781L6.88138 12.816L7.28498 12.7373ZM13.4631 12.1918C14.4298 12.0619 15.0001 12.5595 15.0001 13.2543C15.0001 15.0724 14.8176 16.5686 14.5154 17.7624C14.4112 18.1737 14.3006 18.5167 14.1912 18.7938C14.1788 18.8252 14.1671 18.8542 14.1561 18.8808L14.0789 19.0563C13.3672 19.0202 12.6593 19.0019 11.9511 19.0019C11.2748 19.0019 10.5995 19.0187 9.92053 19.0534C9.91434 19.0407 9.9073 19.0258 9.89947 19.0087L9.80898 18.7938C9.69961 18.5167 9.58897 18.1737 9.48482 17.7624C9.18257 16.5686 9.00009 15.0724 9.00009 13.2543C9.00009 12.5463 9.53495 12.0645 10.4931 12.1919L10.6433 12.219L11.3614 12.3926C11.6368 12.4546 11.8351 12.4844 12.017 12.483C12.1927 12.4816 12.3802 12.451 12.6436 12.3885L13.3425 12.2133L13.4631 12.1918ZM20.375 7.25958C20.4848 6.01416 19.3097 5.00267 17.9767 5.00267C16.5915 5.00267 15.3742 6.09386 15.5965 7.42285L15.8297 9.24331C15.9999 10.3289 16.868 11.0581 17.9767 11.0581C19.0857 11.0581 19.9522 10.3283 20.1178 9.25598L20.375 7.25958ZM5.99029 6.00174C5.21431 6.00174 4.56731 6.54434 4.59095 7.16624L4.6022 7.27672L4.83735 9.10302C4.92801 9.68542 5.37141 10.059 5.99029 10.059C6.5658 10.059 6.99142 9.73601 7.12081 9.23499L7.14535 9.11627L7.38413 7.25815C7.49248 6.61048 6.81359 6.00174 5.99029 6.00174ZM16.5856 7.27698C16.4745 6.61079 17.154 6.00174 17.9767 6.00174C18.7983 6.00174 19.4753 6.61005 19.3675 7.2586L19.1278 9.11601C19.0397 9.68521 18.5959 10.059 17.9767 10.059C17.3569 10.059 16.911 9.68442 16.8197 9.10244L16.5856 7.27698ZM10.2673 5.48854L10.2807 5.60889L10.5589 7.7701C10.6727 8.50331 11.2361 8.97758 12.0128 8.97758C12.7385 8.97758 13.2797 8.56369 13.4395 7.92364L13.4678 7.7831L13.7496 5.59033C13.888 4.76274 13.0364 3.9992 12.0128 3.9992C11.0381 3.9992 10.2214 4.69103 10.2673 5.48854Z" fill="#222222"/>
</svg>
