<svg width="24" height="24" viewBox="0 0 24 24" fill="none" xmlns="http://www.w3.org/2000/svg">
<path d="M13.7794 5H7.99988V4H5.99988C5.72374 4 5.49988 4.22386 5.49988 4.5V13.1754C5.49988 13.3904 5.53453 13.604 5.60251 13.8079L5.99988 15V19L8.77828 14H7.99988V7H12.6681L13.7794 5Z" fill="#EC0000"/>
<path fill-rule="evenodd" clip-rule="evenodd" d="M15.9999 4V5H13.7794L12.6681 7H15.9999V14H8.77828L8.13432 15.1589C8.22558 15.0611 8.35559 15 8.49988 15H9.49988C9.77602 15 9.99988 15.2239 9.99988 15.5C9.99988 15.7761 9.77602 16 9.49988 16H8.49988C8.22374 16 7.99988 15.7761 7.99988 15.5C7.99988 15.4551 8.0058 15.4116 8.01689 15.3702L5.99988 19V19.8C5.99988 21.015 7.04455 22 8.33321 22H15.6665C16.9552 22 17.9999 21.015 17.9999 19.8C17.9999 17.9404 17.9972 15 17.9972 15L18.3962 13.8093C18.4649 13.6045 18.4999 13.3898 18.4999 13.1738V4.5C18.4999 4.22386 18.276 4 17.9999 4H15.9999ZM14.4999 15C14.2237 15 13.9999 15.2239 13.9999 15.5C13.9999 15.7761 14.2237 16 14.4999 16H15.4999C15.776 16 15.9999 15.7761 15.9999 15.5C15.9999 15.2239 15.776 15 15.4999 15H14.4999ZM13.9999 17.5C13.9999 17.2239 14.2237 17 14.4999 17H15.4999C15.776 17 15.9999 17.2239 15.9999 17.5C15.9999 17.7761 15.776 18 15.4999 18H14.4999C14.2237 18 13.9999 17.7761 13.9999 17.5ZM13.9999 19.5C13.9999 19.2239 14.2237 19 14.4999 19H15.4999C15.776 19 15.9999 19.2239 15.9999 19.5C15.9999 19.7761 15.776 20 15.4999 20H14.4999C14.2237 20 13.9999 19.7761 13.9999 19.5ZM10.9999 19.5C10.9999 19.2239 11.2237 19 11.4999 19H12.4999C12.776 19 12.9999 19.2239 12.9999 19.5C12.9999 19.7761 12.776 20 12.4999 20H11.4999C11.2237 20 10.9999 19.7761 10.9999 19.5ZM11.4999 17C11.2237 17 10.9999 17.2239 10.9999 17.5C10.9999 17.7761 11.2237 18 11.4999 18H12.4999C12.776 18 12.9999 17.7761 12.9999 17.5C12.9999 17.2239 12.776 17 12.4999 17H11.4999ZM10.9999 15.5C10.9999 15.2239 11.2237 15 11.4999 15H12.4999C12.776 15 12.9999 15.2239 12.9999 15.5C12.9999 15.7761 12.776 16 12.4999 16H11.4999C11.2237 16 10.9999 15.7761 10.9999 15.5ZM8.49988 19C8.22374 19 7.99988 19.2239 7.99988 19.5C7.99988 19.7761 8.22374 20 8.49988 20H9.49988C9.77602 20 9.99988 19.7761 9.99988 19.5C9.99988 19.2239 9.77602 19 9.49988 19H8.49988ZM7.99988 17.5C7.99988 17.2239 8.22374 17 8.49988 17H9.49988C9.77602 17 9.99988 17.2239 9.99988 17.5C9.99988 17.7761 9.77602 18 9.49988 18H8.49988C8.22374 18 7.99988 17.7761 7.99988 17.5Z" fill="#CC0000"/>
<path d="M15.9999 5V2.25029C15.9999 2.0663 15.7804 1.94536 15.5907 2.02484L14.4737 2.49298L13.3575 2.04319C13.2816 2.01262 13.1943 2.01262 13.1184 2.04319L11.9999 2.49394L10.8813 2.04319C10.8055 2.01262 10.7181 2.01262 10.6423 2.04319L9.52607 2.49298L8.40902 2.02484C8.21937 1.94536 7.99988 2.0663 7.99988 2.25029V5H15.9999Z" fill="#FFDC70"/>
<path d="M13.9999 7H7.99988V14H9.99988L13.9999 7Z" fill="#F5F9FB"/>
<path d="M13.9999 7H15.9999V14H9.99988L13.9999 7Z" fill="#CEDEE7"/>
<path d="M13.9999 19.5C13.9999 19.2239 14.2237 19 14.4999 19H15.4999C15.776 19 15.9999 19.2239 15.9999 19.5C15.9999 19.7761 15.776 20 15.4999 20H14.4999C14.2237 20 13.9999 19.7761 13.9999 19.5Z" fill="#63BA68"/>
<path d="M13.9999 17.5C13.9999 17.2239 14.2237 17 14.4999 17H15.4999C15.776 17 15.9999 17.2239 15.9999 17.5C15.9999 17.7761 15.776 18 15.4999 18H14.4999C14.2237 18 13.9999 17.7761 13.9999 17.5Z" fill="#F5F9FB"/>
<path d="M13.9999 15.5C13.9999 15.2239 14.2237 15 14.4999 15H15.4999C15.776 15 15.9999 15.2239 15.9999 15.5C15.9999 15.7761 15.776 16 15.4999 16H14.4999C14.2237 16 13.9999 15.7761 13.9999 15.5Z" fill="#F5F9FB"/>
<path d="M10.9999 19.5C10.9999 19.2239 11.2237 19 11.4999 19H12.4999C12.776 19 12.9999 19.2239 12.9999 19.5C12.9999 19.7761 12.776 20 12.4999 20H11.4999C11.2237 20 10.9999 19.7761 10.9999 19.5Z" fill="#FFDC70"/>
<path d="M10.9999 17.5C10.9999 17.2239 11.2237 17 11.4999 17H12.4999C12.776 17 12.9999 17.2239 12.9999 17.5C12.9999 17.7761 12.776 18 12.4999 18H11.4999C11.2237 18 10.9999 17.7761 10.9999 17.5Z" fill="#F5F9FB"/>
<path d="M10.9999 15.5C10.9999 15.2239 11.2237 15 11.4999 15H12.4999C12.776 15 12.9999 15.2239 12.9999 15.5C12.9999 15.7761 12.776 16 12.4999 16H11.4999C11.2237 16 10.9999 15.7761 10.9999 15.5Z" fill="#F5F9FB"/>
<path d="M7.99988 19.5C7.99988 19.2239 8.22374 19 8.49988 19H9.49988C9.77602 19 9.99988 19.2239 9.99988 19.5C9.99988 19.7761 9.77602 20 9.49988 20H8.49988C8.22374 20 7.99988 19.7761 7.99988 19.5Z" fill="#FAB2B2"/>
<path d="M7.99988 17.5C7.99988 17.2239 8.22374 17 8.49988 17H9.49988C9.77602 17 9.99988 17.2239 9.99988 17.5C9.99988 17.7761 9.77602 18 9.49988 18H8.49988C8.22374 18 7.99988 17.7761 7.99988 17.5Z" fill="#F5F9FB"/>
<path d="M7.99988 15.5C7.99988 15.2239 8.22374 15 8.49988 15H9.49988C9.77602 15 9.99988 15.2239 9.99988 15.5C9.99988 15.7761 9.77602 16 9.49988 16H8.49988C8.22374 16 7.99988 15.7761 7.99988 15.5Z" fill="#F5F9FB"/>
</svg>
