<svg width="24" height="24" viewBox="0 0 24 24" fill="none" xmlns="http://www.w3.org/2000/svg">
<path d="M15.5 7C15.7457 7 15.9497 7.1767 15.992 7.41007L16 7.5V13.5C16 13.7457 15.8233 13.9497 15.5899 13.992L15.5 14H8.5C8.25434 14 8.05035 13.8233 8.00805 13.5899L8 13.5V7.5C8 7.25434 8.1767 7.05035 8.41007 7.00805L8.5 7H15.5ZM15 8H9V13H15V8Z" fill="#222222"/>
<path d="M10 15.5002C10 15.2239 9.77637 15.0002 9.5 15.0002H8.5L8.41007 15.0083C8.1767 15.0506 8 15.2546 8 15.5002C8 15.7766 8.22363 16.0002 8.5 16.0002H9.5L9.58993 15.9922C9.8233 15.9499 10 15.7459 10 15.5002Z" fill="#222222"/>
<path d="M13 17.5C13 17.2236 12.7764 17 12.5 17H11.5L11.4101 17.008C11.1767 17.0503 11 17.2543 11 17.5C11 17.7764 11.2236 18 11.5 18H12.5L12.5899 17.992C12.8233 17.9497 13 17.7457 13 17.5Z" fill="#222222"/>
<path d="M15.5 17C15.7764 17 16 17.2236 16 17.5C16 17.7457 15.8233 17.9497 15.5899 17.992L15.5 18H14.5C14.2236 18 14 17.7764 14 17.5C14 17.2543 14.1767 17.0503 14.4101 17.008L14.5 17H15.5Z" fill="#222222"/>
<path d="M10 19.5004C10 19.224 9.77637 19.0004 9.5 19.0004H8.5L8.41007 19.0084C8.1767 19.0507 8 19.2547 8 19.5004C8 19.7767 8.22363 20.0004 8.5 20.0004H9.5L9.58993 19.9923C9.8233 19.95 10 19.746 10 19.5004Z" fill="#222222"/>
<path d="M13 19.5004C13 19.224 12.7764 19.0004 12.5 19.0004H11.5L11.4101 19.0084C11.1767 19.0507 11 19.2547 11 19.5004C11 19.7767 11.2236 20.0004 11.5 20.0004H12.5L12.5899 19.9923C12.8233 19.95 13 19.746 13 19.5004Z" fill="#222222"/>
<path d="M16 19.5004C16 19.224 15.7764 19.0004 15.5 19.0004H14.5L14.4101 19.0084C14.1767 19.0507 14 19.2547 14 19.5004C14 19.7767 14.2236 20.0004 14.5 20.0004H15.5L15.5899 19.9923C15.8233 19.95 16 19.746 16 19.5004Z" fill="#222222"/>
<path d="M10 17.5002C10 17.2239 9.77637 17.0002 9.5 17.0002H8.5L8.41007 17.0083C8.1767 17.0506 8 17.2546 8 17.5002C8 17.7766 8.22363 18.0002 8.5 18.0002H9.5L9.58993 17.9922C9.8233 17.9499 10 17.7459 10 17.5002Z" fill="#222222"/>
<path d="M13 15.5002C13 15.2239 12.7764 15.0002 12.5 15.0002H11.5L11.4101 15.0083C11.1767 15.0506 11 15.2546 11 15.5002C11 15.7766 11.2236 16.0002 11.5 16.0002H12.5L12.5899 15.9922C12.8233 15.9499 13 15.7459 13 15.5002Z" fill="#222222"/>
<path d="M16 15.5002C16 15.2239 15.7764 15.0002 15.5 15.0002H14.5L14.4101 15.0083C14.1767 15.0506 14 15.2546 14 15.5002C14 15.7766 14.2236 16.0002 14.5 16.0002H15.5L15.5899 15.9922C15.8233 15.9499 16 15.7459 16 15.5002Z" fill="#222222"/>
<path d="M6 4.00006H7V3.25035C7 2.72563 7.31777 2.34652 7.65083 2.16299C7.98269 1.98012 8.40465 1.93874 8.79566 2.10261L9.53365 2.41189L10.2686 2.11572C10.5843 1.98852 10.9395 1.98852 11.2552 2.11572L12 2.41586L12.7448 2.11572C13.0605 1.98852 13.4157 1.98852 13.7314 2.11572L14.4663 2.41189L15.2043 2.10261C15.5954 1.93874 16.0173 1.98012 16.3492 2.16299C16.6822 2.34652 17 2.72563 17 3.25035V4.00006H18C18.5523 4.00006 19 4.44778 19 5.00006V13.3143C19 13.4984 18.9661 13.681 18.9 13.8528L18.4231 15.0928V19.5001C18.4231 20.8808 17.3038 22.0001 15.9231 22.0001H8.07692C6.69621 22.0001 5.57692 20.8808 5.57692 19.5001V15.0928L5.09998 13.8528C5.03389 13.681 5 13.4984 5 13.3143V5.00006C5 4.44778 5.44771 4.00006 6 4.00006ZM17 5.00006C17 5.55234 16.5523 6.00006 16 6.00006H8C7.44772 6.00006 7 5.55234 7 5.00006H6V13.3143C6 13.3757 6.0113 13.4365 6.03333 13.4938L6.57692 14.9072V19.5001C6.57692 20.3285 7.2485 21.0001 8.07692 21.0001H15.9231C16.7515 21.0001 17.4231 20.3285 17.4231 19.5001V14.9072L17.9667 13.4938C17.9887 13.4365 18 13.3757 18 13.3143V5.00006H17ZM14.4738 3.49304L13.3576 3.04325C13.2818 3.01268 13.1944 3.01268 13.1186 3.04325L12 3.494L10.8814 3.04325C10.8056 3.01268 10.7182 3.01268 10.6424 3.04325L9.52619 3.49304L8.40914 3.02489C8.21949 2.94541 8 3.06636 8 3.25035V5.00006H16V3.25035C16 3.06636 15.7805 2.94541 15.5909 3.02489L14.4738 3.49304Z" fill="#222222"/>
</svg>