<svg width="24" height="24" viewBox="0 0 24 24" fill="none" xmlns="http://www.w3.org/2000/svg">
<path fill-rule="evenodd" clip-rule="evenodd" d="M2 20V19C2 16.8314 4.77303 15.3633 7.31641 15.3633C8.57472 15.3633 9.92412 15.7344 10.8771 15.9964C11.3939 16.1385 11.7942 16.2486 12 16.25C12.2058 16.2486 12.6061 16.1385 13.1229 15.9964C14.0759 15.7344 15.4253 15.3633 16.6836 15.3633C19.227 15.3633 22 16.8314 22 19V20C22 21.1046 21.1046 22 20 22H4C2.89543 22 2 21.1046 2 20Z" fill="#EC0000"/>
<path fill-rule="evenodd" clip-rule="evenodd" d="M8.22644 22H20C21.1045 22 22 21.1046 22 20V19C22 16.8314 19.227 15.3633 16.6836 15.3633C15.4253 15.3633 14.0759 15.7344 13.1229 15.9964C12.6061 16.1385 12.2058 16.2486 12 16.25C11.9025 16.2493 11.7614 16.2243 11.5849 16.183L8.22644 22Z" fill="#CC0000"/>
<path d="M16.1333 10.9624L16.644 6.72081C16.9968 4.03133 14.553 2 11.9953 2C9.28438 2 6.93675 4.16368 7.35584 6.74481L7.85949 10.9441C8.23105 13.0124 9.84767 14.5093 11.9953 14.5093C14.1498 14.5093 15.8118 13.0777 16.1333 10.9624Z" fill="#F67F7F"/>
<path fill-rule="evenodd" clip-rule="evenodd" d="M9.61343 13.7789C9.24264 13.2526 8.98266 12.6297 8.85949 11.9441L8.35584 7.74481C7.93675 5.16368 10.2844 3 12.9953 3C14.0635 3 15.1118 3.35432 15.9449 3.96293C15.0792 2.75882 13.5585 2 11.9953 2C9.28438 2 6.93675 4.16368 7.35584 6.74481L7.85949 10.9441C8.07423 12.1394 8.70482 13.1439 9.61343 13.7789Z" fill="#FAB2B2"/>
</svg>
