<svg width="24" height="24" viewBox="0 0 24 24" fill="none" xmlns="http://www.w3.org/2000/svg">
<path d="M11.9951 2C14.6121 2 16.8887 4.03323 16.6212 6.4714L16.5955 6.65972L16.0804 10.9391C15.7629 13.0284 14.1241 14.439 11.9951 14.439C9.94126 14.439 8.34765 13.1249 7.95241 11.139L7.91468 10.9237L7.40459 6.68032C6.9909 4.13857 9.31179 2 11.9951 2ZM22 19.1924C22 17.0583 19.7374 15.5004 16.723 15.5004C15.8852 15.5004 14.8113 15.6873 13.6816 15.9849L12.5844 16.2871C12.5395 16.2983 12.4971 16.3083 12.4569 16.3174L12.2416 16.3603C12.1459 16.376 12.0666 16.3834 11.998 16.3834C11.7843 16.3834 11.5699 16.3406 11.2256 16.2382L10.943 16.1528L10.3906 16.0022C10.082 15.9248 9.77802 15.8593 9.47721 15.8061L8.39571 15.6115C7.94796 15.5389 7.58659 15.5004 7.274 15.5004C4.43966 15.5004 2 17.1143 2 19.1904V20.0554C2 21.1175 2.8007 21.9974 3.812 21.9974L20.1869 22.0004C21.1991 22.0004 22 21.1207 22 20.0584V19.1924ZM14.2845 16.8635C15.2087 16.6378 16.071 16.5004 16.723 16.5004C19.2474 16.5004 21 17.7072 21 19.1924V20.0584C21 20.5883 20.6248 21.0004 20.187 21.0004L3.81209 20.9974C3.37514 20.9974 3 20.5851 3 20.0554V19.1904C3 17.7745 4.92604 16.5004 7.274 16.5004C7.52226 16.5004 7.83643 16.5339 8.2358 16.5986L8.70145 16.68L9.7223 16.873C10.0038 16.9335 10.2895 17.0054 10.5798 17.0882L10.8319 17.1641L11.1451 17.255C11.4696 17.3425 11.7207 17.3834 11.998 17.3834C12.2211 17.3834 12.451 17.3491 12.7731 17.271L13.129 17.1781L13.774 16.9955L14.2845 16.8635ZM8.37232 6.36913L8.90543 10.7889C9.14892 12.3913 10.363 13.439 11.9951 13.439C13.5642 13.439 14.7503 12.4721 15.0561 10.9919L15.0897 10.8043L15.6056 6.51988C15.909 4.65093 14.1136 3 11.9951 3C9.94202 3 8.1961 4.55143 8.37232 6.36913Z" fill="#222222"/>
</svg>